<?xml version="1.0" encoding="UTF-8" standalone="no"?>
<!-- Created with Inkscape (http://www.inkscape.org/) -->

<svg
   width="101.23679mm"
   height="59.785507mm"
   viewBox="0 0 101.23679 59.785507"
   version="1.1"
   id="svg5"
   xml:space="preserve"
   sodipodi:docname="logo-inkscape.svg"
   inkscape:version="1.2.2 (b0a8486541, 2022-12-01)"
   xmlns:inkscape="http://www.inkscape.org/namespaces/inkscape"
   xmlns:sodipodi="http://sodipodi.sourceforge.net/DTD/sodipodi-0.dtd"
   xmlns="http://www.w3.org/2000/svg"
   xmlns:svg="http://www.w3.org/2000/svg"><sodipodi:namedview
     id="namedview7"
     pagecolor="#ffffff"
     bordercolor="#000000"
     borderopacity="0.25"
     inkscape:showpageshadow="2"
     inkscape:pageopacity="0.0"
     inkscape:pagecheckerboard="0"
     inkscape:deskcolor="#d1d1d1"
     inkscape:document-units="mm"
     showgrid="false"
     inkscape:zoom="0.35355339"
     inkscape:cx="1640.4877"
     inkscape:cy="738.21948"
     inkscape:current-layer="layer1"
     showguides="true"><sodipodi:guide
       position="93.038528,99.638679"
       orientation="0,-1"
       id="guide6237"
       inkscape:locked="false" /><sodipodi:guide
       position="92.851438,85.887659"
       orientation="0,-1"
       id="guide6239"
       inkscape:locked="false" /><sodipodi:guide
       position="-28.557223,175.67662"
       orientation="1,0"
       id="guide7363"
       inkscape:locked="false" /><sodipodi:guide
       position="88.388608,202.13495"
       orientation="0,-1"
       id="guide7365"
       inkscape:locked="false" /><sodipodi:guide
       position="120.13861,157.68495"
       orientation="1,0"
       id="guide7367"
       inkscape:locked="false" /></sodipodi:namedview><defs
     id="defs2" /><g
     inkscape:label="Camada 1"
     inkscape:groupmode="layer"
     id="layer1"
     transform="translate(-57.66139,-215.9036)"><g
       id="g5163"
       transform="translate(-266.25668,58.417852)"
       inkscape:export-filename="ori-logo-w_text.svg"
       inkscape:export-xdpi="96"
       inkscape:export-ydpi="96"><g
         id="g7371"
         inkscape:label="texto"
         transform="translate(168.28695,-42.439236)"><ellipse
           style="display:inline;fill:#eb772a;fill-opacity:1;fill-rule:nonzero;stroke-width:0.240598"
           id="path5267"
           cx="250.17355"
           cy="206.71751"
           rx="6.6943579"
           ry="6.792521" /><path
           d="m 173.43245,259.30585 c -4.31415,-0.92432 -8.49564,-3.15766 -11.45736,-6.11939 -1.97747,-1.97746 -3.01209,-3.4842 -4.34374,-6.32587 -1.52483,-3.25391 -2.15883,-6.56326 -1.96687,-10.26671 0.19008,-3.66738 0.64421,-5.38208 2.34745,-8.86354 1.21272,-2.47882 1.64605,-3.06468 4.02215,-5.43788 2.19567,-2.19299 3.08375,-2.87553 5.06056,-3.88932 1.31866,-0.67626 3.46178,-1.55371 4.7625,-1.94987 2.12637,-0.64764 2.7653,-0.72006 6.33369,-0.71784 3.24782,0.002 4.35325,0.10719 6.08542,0.57894 8.47776,2.30888 14.46024,8.58844 16.15271,16.95483 0.59167,2.92481 0.41124,7.76313 -0.39363,10.55538 -2.27271,7.88448 -8.79378,13.83025 -17.0047,15.5045 -2.53959,0.51784 -7.12459,0.50674 -9.59818,-0.0232 z m 9.68582,-10.58465 c 2.98492,-1.40245 4.94562,-3.61766 6.05436,-6.84026 2.3111,-6.71735 -1.15211,-14.05024 -7.4969,-15.87371 -2.14516,-0.61651 -5.84993,-0.44209 -7.92582,0.37316 -1.78108,0.69947 -4.36524,2.95528 -5.39148,4.70644 -1.10552,1.88642 -1.67697,4.12222 -1.67697,6.56108 0,5.43017 2.92312,9.79815 7.6658,11.45493 1.44341,0.50423 2.16125,0.59 4.37274,0.52249 2.31292,-0.0706 2.86633,-0.18437 4.39827,-0.90413 z m 30.65902,10.55867 c -1.44994,-0.17529 -1.9088,-0.38127 -2.95754,-1.3276 -2.02495,-1.82723 -1.92804,-0.91043 -2.01486,-19.05992 -0.0454,-9.49755 0.0287,-16.98968 0.17892,-18.07338 0.30578,-2.20656 1.14491,-3.48233 2.77838,-4.22412 3.54264,-1.60878 7.29721,1.03204 7.30529,5.13826 0.002,1.01177 0.29098,0.84855 1.78506,-1.00821 2.67872,-3.32897 6.06299,-5.00723 10.10863,-5.01286 3.55039,-0.005 5.68621,0.99819 6.6516,3.12404 1.04197,2.29448 0.34522,5.00432 -1.70469,6.62996 l -1.02024,0.80909 -3.49913,-0.0792 c -3.03222,-0.0686 -3.69756,-0.005 -4.98623,0.47725 -2.92402,1.09401 -5.27017,4.03851 -6.13238,7.69632 -0.31383,1.33139 -0.40042,3.5803 -0.40349,10.47954 -0.004,9.20903 -0.15432,10.81597 -1.14914,12.29218 -0.96842,1.43704 -3.10229,2.3608 -4.94018,2.13861 z m 35.46946,-0.11223 c -1.43831,-0.25238 -2.88086,-1.35706 -3.58717,-2.74701 -0.51064,-1.00487 -0.53175,-1.64274 -0.60279,-18.21464 -0.0827,-19.30506 -0.11724,-18.90448 1.7746,-20.61364 2.75198,-2.48625 6.70479,-1.80173 8.32067,1.44092 l 0.69397,1.39263 -0.006,17.34441 c -0.005,16.2044 -0.0375,17.41411 -0.48763,18.40501 -0.43056,0.94776 -2.13466,2.75754 -2.62462,2.78737 -0.10408,0.006 -0.66548,0.10145 -1.24756,0.21135 -0.58209,0.10991 -1.58723,0.10702 -2.23366,-0.006 z"
           style="display:inline;fill:#141313;stroke-width:0.264583"
           id="path7348" /></g></g></g></svg>
