<?xml version="1.0" encoding="UTF-8" standalone="no"?>
<!-- Created with Inkscape (http://www.inkscape.org/) -->

<svg
   width="147.86768mm"
   height="161.51562mm"
   viewBox="0 0 147.86768 161.51562"
   version="1.1"
   id="svg5"
   xml:space="preserve"
   xmlns="http://www.w3.org/2000/svg"
   xmlns:svg="http://www.w3.org/2000/svg"><defs
     id="defs2" /><g
     id="layer1"
     transform="translate(-33.217259,-114.17349)"><g
       id="g5163"
       transform="translate(-266.25668,58.417852)"><g
         id="g7338"
         transform="translate(269.40183,-18.701119)"><path
           id="path5167"
           style="display:inline;fill:#d4b893;stroke-width:0.264583"
           d="m 125.98652,106.55329 c -2.29197,0 -2.63867,0.0689 -3.93154,0.78497 -1.76052,0.97512 -2.9799,2.37535 -4.15582,4.77128 -1.65848,3.37915 -2.06999,5.48691 -2.06499,10.58334 0.004,4.12066 0.0639,4.6932 0.7152,6.82542 1.27929,4.18831 2.93924,6.99202 7.55045,12.75374 1.58269,1.97759 2.83956,3.78487 3.81113,5.49062 l -2.30554,-1.14407 c 5.5587,0.13506 7.06065,6.93919 8.25633,-1.03575 0.62753,-0.55238 2.78146,-3.38397 4.89145,-4.43269 3.22783,-1.60433 4.04822,-2.13878 5.17332,-3.36982 1.89833,-2.07708 2.54179,-3.84449 2.55489,-7.01766 0.0124,-3.01452 -0.68424,-5.38107 -2.92076,-9.92188 -3.09598,-6.2858 -7.2965,-10.58017 -13.02556,-13.31598 -1.90202,-0.90824 -2.19919,-0.97152 -4.54856,-0.97152 z m -42.894019,2.79105 c -3.476096,0.0461 -7.447267,2.49366 -11.507308,7.14271 -4.875546,5.58287 -7.235135,10.8832 -7.238835,16.25999 -0.0025,3.66969 1.071003,6.52641 3.286622,8.74727 1.629532,1.63339 3.400631,2.4985 7.270357,3.55069 1.626267,0.44219 3.561731,1.11055 4.301029,1.48518 1.520734,0.77062 3.662215,2.67077 4.454509,3.95273 l 0.517083,0.86648 c 0.740817,-0.50711 1.309239,-0.70428 2.161823,-0.8794 0.726502,-2.08963 1.888457,-4.34223 3.685046,-7.27501 3.633999,-5.93217 5.044897,-9.98587 5.063257,-14.54898 0.03427,-8.51864 -4.393166,-17.19216 -9.671244,-18.94716 -0.744461,-0.24754 -1.520163,-0.36515 -2.322339,-0.3545 z m 45.699019,8.98239 c 3.43668,0 5.39486,1.43599 7.34115,5.38365 0.67701,1.37317 1.23094,2.62528 1.23094,2.78278 0,0.15751 -0.3447,0.46511 -0.76636,0.68316 -0.43671,0.22583 -1.00821,0.89472 -1.32757,1.55443 -0.68335,1.41161 -2.1246,2.89394 -3.42253,3.5202 v 5.2e-4 c -1.4513,0.70021 -3.86738,0.74169 -5.46375,0.094 -0.99717,-0.40454 -1.46877,-0.4718 -1.91513,-0.27337 -0.86656,0.38522 -1.35636,0.0826 -1.62884,-1.00666 -0.68259,-2.7287 -0.82107,-3.64539 -0.81907,-5.4007 0.003,-2.30149 0.72281,-4.0488 2.281,-5.5392 1.33305,-1.27506 2.64038,-1.79886 4.49016,-1.79886 z m -46.768204,3.02824 c 0.868719,-0.002 1.715229,0.15286 2.47375,0.47956 2.51087,1.08146 4.444788,3.93466 4.481897,6.61252 0.05384,3.88568 -0.163284,6.09178 -0.628385,6.38514 -0.343913,0.21695 -0.601685,0.20446 -1.00769,-0.0491 -0.469799,-0.29339 -0.752618,-0.2393 -2.038119,0.38964 -1.594274,0.78001 -4.056886,1.06664 -5.418274,0.63097 -1.251497,-0.4005 -2.519131,-1.31988 -3.600297,-2.61121 -0.633083,-0.75615 -1.393556,-1.34972 -1.931665,-1.50792 -1.051149,-0.30902 -1.057807,-0.44882 -0.160714,-3.43596 0.798473,-2.65875 1.276701,-3.57277 2.480986,-4.74235 1.419632,-1.37873 3.437329,-2.14613 5.348511,-2.15129 z m 45.808054,0.16072 c -0.58598,-0.0208 -1.20562,0.22573 -1.68878,0.79995 -0.37674,0.44772 -0.68523,0.92967 -0.68523,1.07125 0,0.45297 0.77067,1.76628 1.11879,1.90634 1.53381,0.61713 3.11454,-0.2577 3.11454,-1.72392 0,-1.24151 -0.88267,-2.01898 -1.85932,-2.05362 z m -0.22479,0.43925 c 0.47732,-0.0158 0.97302,0.19891 1.35651,0.64905 0.62584,0.7346 0.58291,1.18288 -0.18656,1.95234 -0.70902,0.70902 -1.02649,0.76223 -1.93579,0.32401 -0.80569,-0.38829 -1.02042,-1.36618 -0.4806,-2.19005 0.30997,-0.47308 0.76912,-0.71957 1.24644,-0.73535 z m -44.708899,2.49235 c -0.469134,-0.0356 -0.848075,0.2047 -1.412317,0.76895 -0.670642,0.67064 -0.776933,0.94295 -0.638204,1.63659 0.09151,0.45756 0.362408,1.04785 0.601514,1.31206 0.263641,0.29133 0.801903,0.48059 1.368392,0.48059 2.244084,0 3.040772,-2.83313 1.081587,-3.84627 -0.405826,-0.20986 -0.719492,-0.33058 -1.000972,-0.35192 z m 0.07493,0.49403 c 0.666805,0 1.738912,1.08959 1.738912,1.76733 0,0.20527 -0.292385,0.66549 -0.649573,1.02268 -0.357187,0.35719 -0.892968,0.64957 -1.190625,0.64957 -0.743851,0 -1.599386,-0.92001 -1.599386,-1.71979 0,-0.84165 0.868421,-1.71979 1.700672,-1.71979 z" /><ellipse
           style="fill:#fefefe;fill-opacity:1;fill-rule:nonzero;stroke-width:0.264583"
           id="path7325"
           cx="83.188858"
           cy="127.11371"
           rx="3.1534977"
           ry="3.257108"
           transform="translate(1.875e-6)" /><ellipse
           style="fill:#fefefe;fill-opacity:1;fill-rule:nonzero;stroke-width:0.264583"
           id="ellipse7327"
           cx="127.3413"
           cy="123.86073"
           rx="3.1534977"
           ry="3.257108"
           transform="translate(1.875e-6)" /><path
           style="display:inline;fill:#141313;stroke-width:0.264583"
           d="m 104.29074,176.12217 c -1.90182,-0.40994 -5.197036,-1.92676 -5.919087,-2.72462 -0.452125,-0.49959 -0.428255,-0.51742 0.941663,-0.70332 3.091374,-0.4195 5.608674,-1.76484 7.741984,-4.13758 0.89184,-0.99194 1.34092,-1.31447 1.58091,-1.13539 0.18436,0.13758 1.07099,0.80826 1.97029,1.4904 1.99018,1.5096 4.07423,2.32401 6.4586,2.52391 0.98715,0.0828 1.8545,0.24706 1.92746,0.36511 0.19528,0.31596 -2.7067,2.52549 -4.33992,3.30437 -2.87191,1.3696 -6.89471,1.76447 -10.3619,1.01712 z m -9.441167,-5.93418 c -3.198029,-0.67614 -6.477611,-3.33961 -8.096406,-6.57539 -1.268158,-2.5349 -1.603809,-4.32812 -1.44317,-7.71022 0.19494,-4.10423 1.349566,-7.2176 4.712846,-12.70787 2.089007,-3.41012 3.843718,-7.18613 4.504309,-9.69294 1.916422,-7.27246 -1.196745,-18.16735 -6.34696,-22.21192 -1.909572,-1.49963 -3.550825,-2.04898 -5.710674,-1.91145 -4.172807,0.2657 -9.713573,4.73325 -14.163645,11.42022 -5.076989,7.62902 -5.34947,16.00796 -0.673015,20.69548 1.629534,1.63339 3.400708,2.49835 7.270437,3.55054 1.626269,0.44219 3.561733,1.11049 4.301032,1.48512 1.520735,0.77062 3.662135,2.67089 4.45443,3.95285 l 0.530902,0.85902 -0.844727,2.07957 c -0.728628,1.79374 -0.846053,2.40685 -0.854361,4.46082 -0.0086,2.11544 0.307073,3.84052 1.063223,5.81102 0.08583,0.22367 0.04022,0.40668 -0.101365,0.40668 -0.141584,0 -2.386742,-1.6783 -4.989245,-3.72956 -2.602499,-2.05126 -6.219271,-4.75994 -8.037271,-6.01927 -9.194464,-6.36906 -13.220318,-12.96679 -13.678278,-22.41651 l -0.154762,-3.19347 1.396682,-2.32065 c 2.602627,-4.32439 4.535863,-9.7993 7.155487,-20.26429 0.746757,-2.98317 1.837883,-6.709154 2.42472,-8.279948 0.586838,-1.570797 1.001649,-2.921326 0.921801,-3.001174 -0.278474,-0.278474 -1.851562,2.174285 -3.247443,5.063416 -0.773393,1.600726 -2.470946,6.065576 -3.772344,9.921876 -2.743682,8.13007 -3.579461,10.29239 -5.338821,13.81253 -2.256636,4.51509 -5.3073,8.39929 -7.460318,9.4987 -1.176187,0.60061 -3.366029,0.66096 -4.409188,0.12152 -2.408788,-1.24563 -5.708026,-7.16596 -9.952493,-17.85928 -4.420234,-11.13615 -5.183912,-15.949615 -3.213364,-20.253859 0.740952,-1.618454 2.408523,-3.536061 4.06768,-4.67759 2.635708,-1.813415 20.389447,-9.502371 27.699635,-11.996418 3.729292,-1.272339 7.289221,-1.534512 9.83569,-0.724358 3.579494,1.138812 7.131531,4.485934 10.038624,9.459505 0.259133,0.443336 0.451324,0.410941 3.042708,-0.512841 1.521357,-0.542335 3.831132,-1.272112 5.132837,-1.621722 2.315882,-0.621998 2.400896,-0.673507 3.956709,-2.397328 1.612887,-1.78706 3.963389,-3.805111 4.431961,-3.805111 0.158991,0 0.187315,0.705617 0.07434,1.852083 -0.100375,1.018646 -0.08997,1.852084 0.0231,1.852084 0.113086,0 1.229804,-0.986155 2.481584,-2.191457 2.46468,-2.373151 4.75923,-3.908967 7.03526,-4.708927 2.3255,-0.817346 2.34522,-0.775552 0.93832,1.987791 -1.4461,2.840336 -2.12056,5.117909 -1.60916,5.433973 0.17548,0.108455 1.76815,0.267824 3.53927,0.354152 2.69393,0.13131 6.92833,0.820463 9.9895,1.625804 0.62441,0.164269 0.83076,-0.02297 2.37259,-2.152896 4.48163,-6.191017 9.12877,-8.952651 14.20114,-8.439248 2.48569,0.251592 5.64455,1.256546 12.58224,4.002892 13.52113,5.352465 20.0426,8.310565 23.01658,10.440186 3.87065,2.771712 4.87156,7.225229 3.2403,14.417525 -1.34526,5.93128 -5.15029,16.79193 -7.57318,21.61601 -1.75766,3.4996 -3.16176,4.71003 -5.46366,4.71003 -1.92828,0 -3.77212,-1.05363 -6.34324,-3.62476 -4.00535,-4.00535 -6.67489,-8.67423 -11.84535,-20.71691 -3.18728,-7.42359 -5.64547,-11.985324 -7.11639,-13.206075 -0.66315,-0.550365 -0.53765,0.03189 0.52754,2.447589 0.52373,1.187741 1.87634,4.838436 3.0058,8.112656 3.69876,10.72241 6.55819,16.85589 9.88354,21.20022 l 1.89829,2.47999 -0.0226,3.57187 c -0.0249,3.93257 -0.36611,5.7749 -1.71936,9.28401 -1.39949,3.62901 -3.44268,6.34283 -7.98581,10.60698 -2.21523,2.0792 -5.68166,5.48198 -7.70317,7.56174 -2.02151,2.07976 -3.72637,3.73049 -3.78857,3.6683 -0.0622,-0.0622 0.0265,-1.06789 0.19716,-2.23485 0.40333,-2.75842 0.006,-5.25228 -1.2227,-7.67689 -0.49127,-0.96933 -0.89545,-2.01128 -0.89817,-2.31546 -0.009,-0.99217 1.58718,-3.77168 2.75714,-4.80152 0.62754,-0.55238 2.86733,-1.86237 4.97732,-2.91109 3.22783,-1.60433 4.04843,-2.13884 5.17353,-3.36988 1.89834,-2.07708 2.54176,-3.84441 2.55483,-7.01759 0.0124,-3.01452 -0.68423,-5.38106 -2.92074,-9.92187 -3.096,-6.28581 -7.29658,-10.57995 -13.02564,-13.31576 -1.90203,-0.90827 -2.19911,-0.97174 -4.54848,-0.97174 -2.29198,0 -2.63852,0.0692 -3.93139,0.78532 -1.76052,0.97512 -2.97992,2.375 -4.15584,4.77093 -1.65848,3.37915 -2.06976,5.4869 -2.0651,10.58333 0.004,4.12066 0.0637,4.69312 0.71501,6.82535 1.27929,4.18832 2.93914,6.99209 7.55035,12.75382 5.851,7.31085 7.39748,12.34571 5.58975,18.19846 -1.07085,3.467 -3.9448,6.65188 -7.14236,7.91508 -2.11912,0.83717 -6.14864,0.8335 -8.25543,-0.008 -1.84655,-0.73712 -3.95032,-2.57808 -4.68838,-4.10271 -0.83135,-1.71735 -0.73697,-2.22132 0.50938,-2.72001 1.27942,-0.51192 2.38026,-1.74667 2.38026,-2.66979 0,-0.37184 -0.25011,-1.08076 -0.55579,-1.57537 -1.01762,-1.64653 -0.0442,-3.01356 1.39053,-1.95282 1.00604,0.7438 1.9211,0.68839 2.58575,-0.15658 0.82093,-1.04364 1.17262,-2.50569 0.95562,-3.97274 -0.15715,-1.06254 -0.40416,-1.49063 -1.43693,-2.49035 -1.67733,-1.62365 -3.64498,-2.21103 -7.43709,-2.22011 -6.0442,-0.0145 -9.947438,2.43356 -9.894246,6.20548 0.04447,3.15395 2.515226,5.29228 4.241336,3.67069 0.91621,-0.86074 1.54229,-0.48692 1.28249,0.76577 -0.53796,2.59392 -0.0585,3.53944 2.31181,4.55912 l 1.32891,0.57168 -0.13283,1.17849 c -0.2718,2.41143 -3.33516,5.58955 -6.23473,6.4683 -1.315463,0.39868 -4.688561,0.53894 -6.04808,0.2515 z m -14.96293,-34.38406 c -1.251498,-0.4005 -2.519257,-1.31998 -3.600424,-2.61131 -0.633084,-0.75615 -1.393735,-1.34999 -1.931844,-1.50819 -1.05115,-0.30903 -1.057683,-0.44881 -0.160589,-3.43595 0.798473,-2.65875 1.276598,-3.5727 2.480884,-4.74228 2.064922,-2.00543 5.395216,-2.71711 7.822488,-1.67166 2.510872,1.08146 4.444626,3.93455 4.481732,6.61241 0.05384,3.88569 -0.16328,6.09201 -0.628381,6.38537 -0.343913,0.21692 -0.601641,0.20433 -1.007647,-0.0492 -0.469799,-0.29339 -0.752792,-0.2393 -2.038294,0.38964 -1.594276,0.78001 -4.056536,1.06687 -5.417925,0.6312 z m 4.477149,-7.73386 c 1.02662,-0.96446 0.791117,-2.62145 -0.464892,-3.27096 -1.082204,-0.55963 -1.510844,-0.48553 -2.413632,0.41726 -0.670639,0.67064 -0.776692,0.94265 -0.637963,1.63629 0.09151,0.45756 0.362019,1.0481 0.601125,1.31231 0.613775,0.67822 2.145491,0.62835 2.915362,-0.0949 z m 42.019658,4.27546 c -0.99717,-0.40454 -1.46874,-0.47188 -1.9151,-0.27345 -0.86656,0.38522 -1.35623,0.0825 -1.62871,-1.00671 -0.68259,-2.7287 -0.8216,-3.64506 -0.81923,-5.40037 0.003,-2.30149 0.7227,-4.04914 2.28089,-5.53954 1.33306,-1.27506 2.64057,-1.79885 4.49035,-1.79885 3.43668,0 5.39478,1.43599 7.34108,5.38366 0.67701,1.37317 1.23092,2.62554 1.23092,2.78304 0,0.15751 -0.34499,0.46478 -0.76665,0.68283 -0.43671,0.22583 -1.00793,0.89486 -1.32729,1.55457 -0.68335,1.41161 -2.12478,2.89422 -3.42271,3.52048 -1.4513,0.70026 -3.86718,0.74198 -5.46355,0.0943 z m 2.77812,-7.40434 c 1.20343,-1.20343 0.24267,-3.43958 -1.47781,-3.43958 -0.63149,0 -1.03629,0.21378 -1.54138,0.81405 -0.37674,0.44772 -0.68498,0.92989 -0.68498,1.07147 0,0.45297 0.7708,1.76608 1.11892,1.90614 0.80776,0.325 2.08166,0.15151 2.58525,-0.35208 z"
           id="path5165" /></g><g
         id="g7371"
         transform="translate(168.28695,-42.439236)"><ellipse
           style="display:inline;fill:#eb772a;fill-opacity:1;fill-rule:nonzero;stroke-width:0.240598"
           id="path5267"
           cx="250.17355"
           cy="206.71751"
           rx="6.6943579"
           ry="6.792521" /><path
           d="m 173.43245,259.30585 c -4.31415,-0.92432 -8.49564,-3.15766 -11.45736,-6.11939 -1.97747,-1.97746 -3.01209,-3.4842 -4.34374,-6.32587 -1.52483,-3.25391 -2.15883,-6.56326 -1.96687,-10.26671 0.19008,-3.66738 0.64421,-5.38208 2.34745,-8.86354 1.21272,-2.47882 1.64605,-3.06468 4.02215,-5.43788 2.19567,-2.19299 3.08375,-2.87553 5.06056,-3.88932 1.31866,-0.67626 3.46178,-1.55371 4.7625,-1.94987 2.12637,-0.64764 2.7653,-0.72006 6.33369,-0.71784 3.24782,0.002 4.35325,0.10719 6.08542,0.57894 8.47776,2.30888 14.46024,8.58844 16.15271,16.95483 0.59167,2.92481 0.41124,7.76313 -0.39363,10.55538 -2.27271,7.88448 -8.79378,13.83025 -17.0047,15.5045 -2.53959,0.51784 -7.12459,0.50674 -9.59818,-0.0232 z m 9.68582,-10.58465 c 2.98492,-1.40245 4.94562,-3.61766 6.05436,-6.84026 2.3111,-6.71735 -1.15211,-14.05024 -7.4969,-15.87371 -2.14516,-0.61651 -5.84993,-0.44209 -7.92582,0.37316 -1.78108,0.69947 -4.36524,2.95528 -5.39148,4.70644 -1.10552,1.88642 -1.67697,4.12222 -1.67697,6.56108 0,5.43017 2.92312,9.79815 7.6658,11.45493 1.44341,0.50423 2.16125,0.59 4.37274,0.52249 2.31292,-0.0706 2.86633,-0.18437 4.39827,-0.90413 z m 30.65902,10.55867 c -1.44994,-0.17529 -1.9088,-0.38127 -2.95754,-1.3276 -2.02495,-1.82723 -1.92804,-0.91043 -2.01486,-19.05992 -0.0454,-9.49755 0.0287,-16.98968 0.17892,-18.07338 0.30578,-2.20656 1.14491,-3.48233 2.77838,-4.22412 3.54264,-1.60878 7.29721,1.03204 7.30529,5.13826 0.002,1.01177 0.29098,0.84855 1.78506,-1.00821 2.67872,-3.32897 6.06299,-5.00723 10.10863,-5.01286 3.55039,-0.005 5.68621,0.99819 6.6516,3.12404 1.04197,2.29448 0.34522,5.00432 -1.70469,6.62996 l -1.02024,0.80909 -3.49913,-0.0792 c -3.03222,-0.0686 -3.69756,-0.005 -4.98623,0.47725 -2.92402,1.09401 -5.27017,4.03851 -6.13238,7.69632 -0.31383,1.33139 -0.40042,3.5803 -0.40349,10.47954 -0.004,9.20903 -0.15432,10.81597 -1.14914,12.29218 -0.96842,1.43704 -3.10229,2.3608 -4.94018,2.13861 z m 35.46946,-0.11223 c -1.43831,-0.25238 -2.88086,-1.35706 -3.58717,-2.74701 -0.51064,-1.00487 -0.53175,-1.64274 -0.60279,-18.21464 -0.0827,-19.30506 -0.11724,-18.90448 1.7746,-20.61364 2.75198,-2.48625 6.70479,-1.80173 8.32067,1.44092 l 0.69397,1.39263 -0.006,17.34441 c -0.005,16.2044 -0.0375,17.41411 -0.48763,18.40501 -0.43056,0.94776 -2.13466,2.75754 -2.62462,2.78737 -0.10408,0.006 -0.66548,0.10145 -1.24756,0.21135 -0.58209,0.10991 -1.58723,0.10702 -2.23366,-0.006 z"
           style="display:inline;fill:#141313;stroke-width:0.264583"
           id="path7348" /></g></g></g></svg>
